<!DOCTYPE svg PUBLIC "-//W3C//DTD SVG 1.1//EN" "http://www.w3.org/Graphics/SVG/1.1/DTD/svg11.dtd">
<!-- Uploaded to: SVG Repo, www.svgrepo.com, Transformed by: SVG Repo Mixer Tools -->
<svg width="800px" height="800px" viewBox="0 0 24 24" fill="none" xmlns="http://www.w3.org/2000/svg">
<g id="SVGRepo_bgCarrier" stroke-width="0"/>
<g id="SVGRepo_tracerCarrier" stroke-linecap="round" stroke-linejoin="round"/>
<g id="SVGRepo_iconCarrier"> <path d="M6 8H4M6 16H4M6 12H3M7 4.51555C8.4301 3.55827 10.1499 3 12 3C16.9706 3 21 7.02944 21 12C21 16.9706 16.9706 21 12 21C10.1499 21 8.4301 20.4417 7 19.4845M14 9.49991C13.5 9.37589 12.6851 9.37133 12 9.37589M12 9.37589C11.7709 9.37742 11.9094 9.36768 11.6 9.37589C10.7926 9.40108 10.0016 9.73666 10 10.6874C9.99825 11.7002 11 11.9999 12 11.9999C13 11.9999 14 12.2311 14 13.3124C14 14.125 13.1925 14.4811 12.1861 14.599C12.1216 14.599 12.0597 14.5991 12 14.5994M12 9.37589L12 8M12 14.5994C11.3198 14.6022 10.9193 14.6148 10 14.4999M12 14.5994L12 16" stroke="#198754" stroke-width="2" stroke-linecap="round" stroke-linejoin="round"/> </g>
</svg>