<!DOCTYPE svg PUBLIC "-//W3C//DTD SVG 1.1//EN" "http://www.w3.org/Graphics/SVG/1.1/DTD/svg11.dtd">
<!-- Uploaded to: SVG Repo, www.svgrepo.com, Transformed by: SVG Repo Mixer Tools -->
<svg fill="#ffffff" version="1.1" id="Layer_1" xmlns="http://www.w3.org/2000/svg" xmlns:xlink="http://www.w3.org/1999/xlink" viewBox="0 0 512 512" xml:space="preserve" width="800px" height="800px" stroke="#ffffff" transform="matrix(-1, 0, 0, 1, 0, 0)">
<g id="SVGRepo_bgCarrier" stroke-width="0"/>
<g id="SVGRepo_tracerCarrier" stroke-linecap="round" stroke-linejoin="round"/>
<g id="SVGRepo_iconCarrier"> <g> <g> <polygon points="370.372,201.055 354.893,185.575 326.425,157.107 310.945,141.627 304.437,135.12 164.291,226.856 285.144,347.709 376.88,207.563 "/> </g> </g> <g> <g> <path d="M43.759,343.358l-17.936,17.937c-34.43,34.43-34.43,90.453,0,124.882c34.43,34.43,90.453,34.43,124.882,0l17.937-17.937 L43.759,343.358z"/> </g> </g> <g> <g> <rect x="112.097" y="258.232" transform="matrix(0.7071 -0.7071 0.7071 0.7071 -196.575 218.497)" width="106.73" height="176.608"/> </g> </g> <g> <g> <polygon points="446.707,86.816 507.875,25.648 486.35,4.125 425.182,65.293 359.89,0 322.001,109.636 330.455,118.09 345.935,133.569 378.429,166.065 393.91,181.545 402.364,189.999 512,152.11 "/> </g> </g> </g>
</svg>