<!DOCTYPE svg PUBLIC "-//W3C//DTD SVG 1.1//EN" "http://www.w3.org/Graphics/SVG/1.1/DTD/svg11.dtd">
<!-- Uploaded to: SVG Repo, www.svgrepo.com, Transformed by: SVG Repo Mixer Tools -->
<svg fill="#ffffff" width="800px" height="800px" viewBox="0 0 256 256" id="Flat" xmlns="http://www.w3.org/2000/svg" stroke="#ffffff">
<g id="SVGRepo_bgCarrier" stroke-width="0"/>
<g id="SVGRepo_tracerCarrier" stroke-linecap="round" stroke-linejoin="round"/>
<g id="SVGRepo_iconCarrier"> <path d="M207.99463,39.99512h-160a16.018,16.018,0,0,0-16,16v58.667c0,89.458,75.82617,119.125,91.02588,124.16406a15.48947,15.48947,0,0,0,9.94775,0c15.2002-5.03906,91.02637-34.70605,91.02637-124.16406v-58.667A16.018,16.018,0,0,0,207.99463,39.99512ZM160,136H136v24a8,8,0,0,1-16,0V136H96a8,8,0,0,1,0-16h24V96a8,8,0,0,1,16,0v24h24a8,8,0,0,1,0,16Z"/> </g>
</svg>