<!DOCTYPE svg PUBLIC "-//W3C//DTD SVG 1.1//EN" "http://www.w3.org/Graphics/SVG/1.1/DTD/svg11.dtd">
<!-- Uploaded to: SVG Repo, www.svgrepo.com, Transformed by: SVG Repo Mixer Tools -->
<svg version="1.1" id="_x32_" xmlns="http://www.w3.org/2000/svg" xmlns:xlink="http://www.w3.org/1999/xlink" viewBox="0 0 512 512" xml:space="preserve" width="800px" height="800px" fill="#000000">
<g id="SVGRepo_bgCarrier" stroke-width="0"/>
<g id="SVGRepo_tracerCarrier" stroke-linecap="round" stroke-linejoin="round"/>
<g id="SVGRepo_iconCarrier"> <style type="text/css"> .st0{fill:#ffc107;} </style> <g> <path class="st0" d="M362.963,194.782c-2.075-2.082-5.627-2.004-8.159,0.183l-94.247,81.172c-7.856-1.287-16.183,1.069-22.24,7.124 c-9.987,9.988-9.987,26.178,0,36.166c9.988,9.987,26.178,9.987,36.166,0c6.056-6.056,8.412-14.383,7.125-22.24l81.172-94.246 C364.968,200.408,365.045,196.863,362.963,194.782z"/> <path class="st0" d="M449.72,219.898c-15.98-37.762-42.602-69.82-76.143-92.481c-16.782-11.338-35.294-20.32-55.064-26.474 C298.749,94.796,277.718,91.49,256,91.49c-28.964,0-56.682,5.88-81.847,16.536c-37.762,15.98-69.82,42.601-92.482,76.143 c-11.338,16.782-20.32,35.293-26.467,55.065c-6.154,19.763-9.466,40.793-9.459,62.512c-0.007,28.964,5.886,56.682,16.528,81.848 c15.986,37.762,42.608,69.82,76.15,92.489c16.782,11.33,35.294,20.312,55.064,26.466C213.251,508.694,234.281,512,256,512 c28.964,0,56.675-5.88,81.848-16.536c37.762-15.979,69.82-42.601,92.481-76.143c11.338-16.781,20.32-35.286,26.474-55.064 c6.147-19.764,9.453-40.793,9.453-62.513C466.262,272.782,460.368,245.07,449.72,219.898z M256,461.992 c-22.197,0-43.206-4.48-62.365-12.582c-28.731-12.14-53.242-32.494-70.53-58.089c-8.644-12.793-15.48-26.881-20.151-41.918 c-4.677-15.03-7.202-31.01-7.202-47.658c0-22.197,4.48-43.206,12.583-62.364c12.14-28.724,32.501-53.25,58.088-70.531 c12.794-8.644,26.881-15.48,41.912-20.151c15.036-4.677,31.017-7.202,47.664-7.202c22.197,0,43.206,4.48,62.365,12.583 c28.724,12.14,53.243,32.501,70.531,58.088c8.644,12.794,15.48,26.882,20.15,41.912c4.677,15.037,7.202,31.017,7.202,47.664 c0,22.198-4.48,43.206-12.583,62.365c-12.146,28.732-32.501,53.25-58.088,70.53c-12.794,8.644-26.881,15.48-41.912,20.15 C288.628,459.468,272.647,461.992,256,461.992z"/> <rect x="225.883" class="st0" width="60.234" height="77.852"/> <polygon class="st0" points="448.502,104.163 417.155,77.859 384.246,117.084 415.586,143.382 "/> <rect x="248.087" y="165.439" class="st0" width="15.825" height="36.932"/> <rect x="248.087" y="401.119" class="st0" width="15.825" height="36.939"/> <polygon class="st0" points="154.016,210.958 180.138,237.073 191.328,225.876 165.213,199.761 "/> <polygon class="st0" points="357.984,392.531 331.861,366.416 320.671,377.606 346.786,403.728 "/> <rect x="119.693" y="293.832" class="st0" width="36.932" height="15.825"/> <polygon class="st0" points="355.374,309.658 392.306,309.658 392.314,293.832 355.374,293.832 "/> <polygon class="st0" points="154.016,392.531 165.213,403.728 191.328,377.606 180.131,366.416 "/> </g> </g>
</svg>