<?xml version="1.0" encoding="UTF-8" standalone="no"?>
<svg viewBox="0 0 256 256" xmlns="http://www.w3.org/2000/svg" xml:space="preserve" style="fill-rule:evenodd;clip-rule:evenodd;stroke-linejoin:round;stroke-miterlimit:2">
	<desc>Traced by Dogo314</desc>
	<g transform="translate(-276,-306)" id="g7">
		<clipPath id="a">
			<path d="M 276,306 H 532 V 562 H 276 Z" id="path2" />
		</clipPath>
		<g clip-path="url(#a)" id="g6">
			<path style="display:inline;fill:#011419" transform="translate(0,306)" d="M 276,0 H 532 V 256 H 276 Z" id="path3" />
			<path d="m 1782,2429 -22,-22 v -22 l 18,-18 v -28 l 25,25 v 27 l 8,-20 10,33 -25,25 v -15 l 7,-7 -11,-11 v -14 l -21,21 11,11 z" style="display:inline;fill:#ffffee" transform="translate(-1380,-1992)" id="path5" />
			<path d="M 276,15 V 0 H 532 V 15 Z M 518,0.82 H 290 v 13.36 h 228 z" style="display:inline;fill:#5abeda" transform="matrix(1,0,0,17.06667,0,306)" id="path6" />
			<path d="m 1013.7106,278.15963 h 2.7918 c 0.037,4.18702 -0.5199,10.83296 0.4467,10.79123 0.7797,-0.10918 1.328,-1.72374 1.5633,-2.65871 5.7445,-0.0736 -0.7581,0.0417 3.6026,-0.0354 1.6266,-4.7e-4 2.9859,1.59939 2.9859,1.59939 h 7.5935 c 1.1995,-1.71632 2.4201,-1.88978 4.1174,-1.26704 0.8871,0.34591 1.5167,1.68659 1.634,2.38204 0.2339,2.13548 0,2.30845 0.2788,2.63847 0.4517,0.0665 0.8937,0.20251 1.34,0.31279 0.4448,-0.62289 2.068,0.0183 2.2876,1.65552 0.054,1.02858 0,1.99756 -0.055,3.03633 l 5.1367,0.15639 c -0.2435,-3.16335 0.105,-6.03341 1.5507,-8.69152 0.5155,-0.61897 1.9362,-1.29756 2.9868,-1.37334 2.8709,-0.26595 9.1794,-1.77435 11.2707,-2.78883 1.4852,-0.70313 3.9287,-1.05844 4.2923,1.28048 0.3657,2.74711 -3.4563,5.08492 -4.8899,4.55011 -7.4562,0.15812 -8.1462,2.4705 -8.0638,8.27426 h 77.7219 c 0.1794,-1.82995 0.4123,-3.23622 1.5272,-4.23369 22.2205,0.0848 0.075,0.0361 22.1468,0.011 0.023,0.98978 0.011,1.98129 0,2.97151 h -1.8985 v 2.65871 l 1.7632,0.50511 0.022,5.87259 -1.674,0.34727 v 5.31742 c 2.5329,0.78987 2.2499,6.79639 1.0428,7.32044 -6.299,0.79217 0.011,-0.16658 -6.403,0.81208 v 2.34593 c 6.9692,0.3945 0,-0.0175 6.9333,0.35667 l 0.2136,0.42531 c 0.2615,0.43343 0.3654,0.60531 0.7688,0.70599 4.776,0.0504 -2.8024,-0.003 2.3852,0.0361 0.3078,0.0399 0.3078,0.0399 0.6428,0.35273 0.3938,0.104 0.791,0.17355 1.0923,-0.23643 0.4124,-1.17927 -0.3488,-2.50619 0.3594,-4.45542 0.2385,-0.98524 0.4724,-0.78033 0.67,-0.93837 1.7338,2.88254 1.7153,2.85221 2.1216,3.75348 0.7018,0.26993 1.4644,0.86789 1.2285,2.18953 -2.44,2.9044 -6.8142,10.58902 -10.5777,10.58294 -0.9779,-0.0438 -1.9563,-0.0597 -2.9343,-0.10454 -0.094,-1.89431 0.9211,-3.32731 0.67,-5.16103 -1.9569,-1.2811 -3.4104,-1.63678 -5.6055,-1.6321 -0.5907,-0.005 -1.1549,0.0462 -1.7408,-0.0659 -0.2098,-0.315 -0.5995,-0.70728 -0.8544,-0.63812 -1.2424,0.0994 -0.4547,0.6882 -1.9525,0.66162 -0.3207,-0.002 -2.5955,-0.0314 -3.3588,-0.0458 0,0 -0.2051,1.24135 -1.3261,0.63536 -0.3149,-0.42799 -0.3727,-0.8244 -0.4606,-1.41734 -0.7595,0.40294 -4.0544,1.71914 -3.7968,-1.40754 -4.5226,0.42287 -9.6792,6.76205 -14.8433,6.94062 -16.2137,1.37506 -21.5515,-5.24135 -32.3928,-5.06389 -0.6829,2.27095 -2.3637,2.54915 -4.3121,2.47075 l -0.042,-0.59401 h -8.3753 l -0.1117,0.62558 c -0.4838,0.32027 -2.2583,0.25552 -2.5683,-2.65871 -3.1693,3.89084 -5.0594,10.87902 -12.9537,11.7296 -0.4016,0.69058 -0.8992,2.96382 -1.3256,3.27696 -2.3146,0.85218 -5.3234,1.13838 -5.2629,-0.14907 l -0.67,-0.15639 c -1.1527,2.00576 -2.0141,6.51031 -3.412,7.73176 -33.9017,0.96714 -0.1583,-0.0133 -33.9711,1.01718 -3.2843,-3.62688 -1.9577,-17.23673 -1.9245,-22.98086 l -0.2065,4.7e-4 c -2.3128,0.005 -12.00228,0.98428 -15.62965,-0.46965 -1.76734,-2.01787 -6.37026,-3.7688 -9.86792,-2.87192 -2.01592,3.10898 -3.59806,7.57666 -6.79176,8.34573 -3.91817,0.3174 -3.66457,-0.0994 -20.65531,0.0974 -4.76928,0.0525 -4.60295,-4.07656 -9.34972,-4.01522 -2.83401,0.0193 -4.67056,-0.0397 -5.20901,-0.036 -0.63626,-0.0227 -1.07381,-0.24784 -1.52518,-0.89441 -0.75037,-3.24632 -2.56371,-12.6924 -2.73458,-17.72239 -0.0373,-3.47117 3.69109,-2.76212 4.5213,-2.13973 1.53294,0.91153 9.07328,-6.44352 25.41884,-9.63924 0.89402,-0.1871 1.74354,-0.56257 2.47057,-1.33771 2.63712,-2.94923 5.16254,-3.05384 8.48993,-2.91836 4.93912,-2.64867 10.38288,-4.69225 15.42284,-7.22033 4.24567,-0.48127 8.69995,-0.27022 12.99325,-0.22614 3.1464,-0.0467 2.3208,-3.37774 3.323,-4.30696 0.5019,-0.14255 1.0622,-0.15639 1.7866,-0.15639 z m 31.2675,29.76089 c -1.4073,10e-4 -2.9091,0.0518 -4.3471,0.12167 l -0.1197,0.45801 c -0.349,0.10748 -0.349,0.10748 -0.67,0.1564 v 0.78197 h 0.7816 l 0.1117,0.62558 h 4.2435 z m 20.5472,-0.82787 v 3.90987 h 51.2562 v -3.75348 c -51.2678,-0.12295 0.042,-0.0392 -51.2562,-0.15639 z m 53.8245,0 v 4.06627 h 12.842 v -4.06627 z m -64.7682,0.15639 v 3.90988 h 8.7102 v -3.90988 z m -107.54462,11.76871 c -0.24386,2.06114 0.0792,5.17862 1.354,6.50016 1.86516,1.89028 1.01386,-0.36036 6.95142,3.41135 2.50901,1.60482 9.45783,1.98609 20.81893,1.37765 1.43617,-0.0899 2.78681,-0.40771 3.81812,-1.91526 1.97331,-3.24058 2.94758,-7.62507 3.69206,-10.19497 -0.90452,-1.74822 -2.0532,-2.40858 -3.52456,-2.4339 -2.8158,-0.1148 -2.8158,-0.1148 -3.51061,-1.00679 -0.38909,-1.31915 -2.13512,-5.24185 -3.96338,-5.38401 -3.97212,0.0398 -23.35942,4.62172 -25.63598,9.64577 z m 134.23362,1.05566 v 2.9715 c 3.3469,0.16164 3.9999,0.32909 4.5945,1.7234 l 0.2072,0.77892 c 10.7914,0 18.5485,6.60472 31.6121,5.28607 4.3907,-0.50206 12.6067,-6.92628 15.2891,-7.16281 0,0 -0.073,-0.68832 0.5583,-0.62558 v -0.62558 c 0.6989,-0.51621 1.5653,-0.42356 2.3451,-0.46918 v 0.46918 h 1.5634 v -2.34592 z m -30.9325,0.62558 c -0.7552,1.87737 -2.5683,4.35083 -2.5683,6.41219 1.1232,2.50247 1.7477,5.45987 2.1217,6.41218 0.3445,0.0644 0.6691,0.11682 1.005,0 0.3436,-0.81723 0.4018,-0.91828 0.6573,-1.03276 0.1095,-0.0165 1.3751,-0.19651 2.5811,0.0944 l 0.2234,0.93837 c 0.3196,0.43939 0.4287,0.48567 1.5491,0.60205 0.5884,0.0865 0.8572,0.29593 1.2426,0.9619 0.2415,0.50105 0.4015,1.00289 0.5583,1.56394 6.0127,1.14473 8.9826,-6.20112 12.842,-11.41681 0.3301,-0.69962 0.1953,-2.30752 3.5735,-2.03314 0.016,-0.33139 0.011,-1.03886 0,-2.8151 -23.806,0.22244 -0.048,0.0175 -23.7857,0.3128 z m -8.0401,1.09477 c -0.1375,0.19247 -0.3119,1.38511 -0.5584,3.44067 0.1756,0.24597 1.2652,0.396 1.6397,-0.0256 0.5773,-1.12754 0.9164,-2.18084 0.817,-3.57142 -0.6573,-0.12765 -1.2786,-0.26437 -1.8983,0.1564 z" fill="#1b1b1b" id="path4-1" style="clip-rule:evenodd;display:inline;fill:#53bcda;fill-opacity:1;fill-rule:evenodd;stroke-width:0.132153;stroke-linejoin:round;stroke-miterlimit:2" transform="translate(-648,179)" />
		</g>
	</g>
</svg>
