<svg viewBox="0 0 256 256" xmlns="http://www.w3.org/2000/svg" xml:space="preserve" style="fill-rule:evenodd;clip-rule:evenodd;stroke-linejoin:round;stroke-miterlimit:2">
	<desc>Traced by Dogo314</desc>
	<g transform="translate(-276,-306)" id="g7" style="display:inline">
		<path style="display:inline;fill:none" d="M 276,306 H 532 V 562 H 276 Z" id="path1" />
		<clipPath id="a">
			<path d="M 276,306 H 532 V 562 H 276 Z" id="path2" />
		</clipPath>
		<g clip-path="url(#a)" id="g6">
			<path style="display:inline;fill:#091901;fill-opacity:0.75" transform="translate(0,306)" d="M 276,0 H 532 V 256 H 276 Z" id="path3" />
			<path d="m 404,758 h 57 l 18,21 H 359 l 10.286,-12 H 404 Z M 395.325,653 H 404 c 31.459,0 57,25.541 57,57 v 15 h -65.675 l 12,-36 z M 395,731 h 54 v 21 h -45 v -8.485 l -9,-9 z m 35.849,-78 H 491 v 21 h -35.306 a 63.3,63.3 0 0 0 -24.845,-21" style="display:inline;fill:#679452" transform="matrix(1.33333,0,0,1.33333,-154.667,-520.667)" id="path4" />
			<path d="m 2020,656 16,48 -16,48 v 16 l 12,12 v 20 h -36 v -20 l 12,-12 -0.3887,-20.41306 13.9934,-16.29168 -4.2652,-8.42719 6.3689,-7.09573 0.2814,-26.27541 -5.1062,-0.0213 -0.9225,-4.08132 -1.893,-3.64137 -2.8846,-3.57068 -1.7947,-2.12968 -2.0936,-1.95823 -1.8373,-1.50591 -2.09,-1.53031 L 2008,656 Z" style="display:inline;fill:#ffffee" transform="translate(-1656,-306)" id="path5" />
			<path d="M 276,15 V 0 H 532 V 15 Z M 518,0.82 H 290 v 13.36 h 228 z" style="display:inline;fill:#689452" transform="matrix(1,0,0,17.06667,0,306)" id="path6" />
			<path d="M 47.81465,117.76121 32.606135,102.33378 V 82.281133 h 5.034654 c 0.360949,0 0.706796,-0.150383 0.959219,-0.417136 0.252414,-0.266754 0.389408,-0.627092 0.380697,-0.999568 a 18.255031,18.029409 0 0 1 -0.007,-0.484742 c 0,-10.781338 9.310813,-19.53429 20.779287,-19.53429 11.468475,0 20.779372,8.752952 20.779372,19.53429 q 0,0.243071 -0.0062,0.484742 c -0.0086,0.372476 0.128367,0.732406 0.380696,0.99908 0.252337,0.266673 0.597938,0.417136 0.958895,0.417136 l 5.03465,4.88e-4 v 20.052647 l -15.208435,15.42743 2.472732,2.55067 4.945781,-5.10183 c 0.377384,-0.38902 0.888854,-0.60759 1.422072,-0.60759 0.53321,0 1.044687,0.21857 1.422065,0.60759 l 1.847911,1.90645 c 0.377462,0.38902 0.589302,0.91646 0.589302,1.46694 0,0.54989 -0.21184,1.07774 -0.589226,1.46677 l -13.913409,14.35314 c -0.377384,0.38901 -0.888769,0.60766 -1.421986,0.60766 -0.53321,0 -1.044679,-0.21865 -1.422065,-0.60766 l -1.847989,-1.90703 c -0.377383,-0.38894 -0.589226,-0.91638 -0.589226,-1.46677 0,-0.5499 0.211843,-1.07783 0.589142,-1.46694 l 4.275577,-4.41049 -2.512303,-2.59131 -0.168942,0.17144 c -0.670296,0.69135 -2.010879,2.41987 -7.038149,2.41987 -5.027268,0 -6.367853,-1.72852 -7.038141,-2.41987 l -0.16894,-0.17144 -2.512312,2.59131 4.275576,4.41057 c 0.377387,0.38903 0.589143,0.91687 0.589143,1.46686 0,0.54998 -0.211756,1.07783 -0.589143,1.46685 l -1.848073,1.90702 c -0.377378,0.38894 -0.888768,0.60759 -1.421978,0.60759 -0.533218,0 -1.044688,-0.21865 -1.422072,-0.60766 L 35.703861,120.0503 c -0.377378,-0.38912 -0.589142,-0.91706 -0.589142,-1.46694 0,-0.54991 0.211764,-1.07784 0.589142,-1.46686 l 1.848073,-1.90645 c 0.377386,-0.38902 0.888769,-0.60759 1.421986,-0.60759 0.533211,0 1.04468,0.21857 1.422065,0.60759 l 4.945867,5.10183 z M 75.505456,82.281133 H 44.001257 c -0.370326,0 -0.670297,0.309782 -0.670297,0.691346 V 94.38182 l 6.367854,6.56877 9.049184,-5.877343 h 2.010879 l 9.049098,5.877423 6.367854,-6.568689 V 82.972479 c 0,-0.381484 -0.299961,-0.691346 -0.670296,-0.691346 M 59.753352,116.50891 c -0.92503,0 -1.675727,0.77452 -1.675727,1.72852 0,0.95401 0.750697,1.7287 1.675727,1.7287 0.925038,0 1.675729,-0.77461 1.675729,-1.72862 0,-0.95399 -0.750691,-1.72852 -1.675729,-1.72852 m 7.038149,-12.4466 c -0.924952,0 -1.675736,0.77444 -1.675736,1.72902 0,0.95457 0.750784,1.72852 1.675736,1.72852 0.924945,0 1.675806,-0.77452 1.675806,-1.72852 0,-0.95401 -0.750776,-1.72902 -1.675806,-1.72902 m -7.038149,4.14889 c -0.92503,0 -1.675727,0.77445 -1.675727,1.72853 0,0.95408 0.750697,1.72902 1.675727,1.72902 0.925038,0 1.675729,-0.77453 1.675729,-1.72902 0,-0.95449 -0.750691,-1.72853 -1.675729,-1.72853 m 0,-8.297796 c -0.92503,0 -1.675727,0.775026 -1.675727,1.729026 0,0.954 0.750697,1.72853 1.675727,1.72853 0.925038,0 1.675729,-0.77445 1.675729,-1.72853 0,-0.95408 -0.750691,-1.729026 -1.675729,-1.729026 m 7.038149,12.446686 c -0.924952,0 -1.675736,0.77445 -1.675736,1.72854 0,0.95408 0.750784,1.72901 1.675736,1.72901 0.924945,0 1.675806,-0.77501 1.675806,-1.72901 0,-0.95401 -0.750776,-1.72854 -1.675806,-1.72854 m -14.07629,-8.29778 c -0.92503,0 -1.675727,0.77444 -1.675727,1.72902 0,0.95457 0.750697,1.72852 1.675727,1.72852 0.92503,0 1.675729,-0.77452 1.675729,-1.72852 0,-0.95401 -0.750699,-1.72902 -1.675729,-1.72902 m 0,8.29778 c -0.92503,0 -1.675727,0.77445 -1.675727,1.72854 0,0.95408 0.750697,1.72901 1.675727,1.72901 0.92503,0 1.675729,-0.77501 1.675729,-1.72901 0,-0.95401 -0.750699,-1.72854 -1.675729,-1.72854" style="clip-rule:evenodd;display:inline;fill:#ffffee;fill-rule:evenodd;stroke-width:0.0824628;stroke-linejoin:round;stroke-miterlimit:2" id="path4-4" transform="translate(276,306)" />
		</g>
	</g>
</svg>
