<svg xmlns="http://www.w3.org/2000/svg" viewBox="0 0 7961 7365">
  <defs>
    <style>
      .cls-1 {
        fill-rule: evenodd;
        fill: #fff;
      }
    </style>
  </defs>
  <g id='everything' style='opacity: 0.015;'>
  <g id="ORNEMENTS">
    <path id="ornement_right" data-name="ornement right" class="cls-1" d="M5533,1621s764.54,749.04,765,1897-742.45,1694.58-949,1841-505.01,281.16-746,336-355.45,70.11-524,153-140.03,38.79-232,160-344,452-344,452l86,41s87.81-104,167-180c0,0,39.74-45.66,62-52,34.34-18.87,538.49-275.59,761-335s464.86-132.68,648-237,705.38-444.6,934-876c210.01-396.3,321.39-573.46,352-1303.14-20.12-371.2-63.7-914.85-490-1584.86,0,0-18.38-50.51-88-89S5533,1621,5533,1621Z"/>
    <path id="ornement_right_copy" data-name="ornement right copy" class="cls-1" d="M6453.31,2698.39S6843.42,3730.91,6306,4735c-171.24,319.93-467.14,669.42-837,910-301.4,211.34-752,334-752,334l-308,89s-112.78,42.44-315,121c-112.36,43.65-190,115-190,115l363-32,328-33,104-23s1217.03-229.05,1821-1400c69.56-174.08,182.03-383.61,228-654,45.25-266.18,77.96-581.77,26-972,0,0,2.96-58.79-44-123S6453.31,2698.39,6453.31,2698.39Z"/>
    <path id="ornement_left" data-name="ornement left" class="cls-1" d="M3612.59,6209.75C3600.88,6234.74,3460,6204,3460,6204l-117-28S2144.67,5942.91,1540.6,4771.83c-69.56-174.1-182.06-383.65-228.03-654.07-45.26-266.22-70.54-573.49-18.57-963.76,0,0,8.03-143.79,55-208s294-361,294-361-425.86,1101.62,111.64,2105.82c171.26,319.97,467.21,669.5,837.12,910.11,301.44,211.36,752.12,334.03,752.12,334.03l308.04,89.01s27.32,10.28,79.14,30.08C3695.98,6100.19,3651,6127.81,3612.59,6209.75Z"/>
    <g id="ornement_left-2" data-name="ornement left">
      <path id="Shape_1_copy_2" data-name="Shape 1 copy 2" class="cls-1" d="M3821.42,5945.48L3811,5952s-232.08-13.92-326-39c-222.51-59.42-462.6-165.62-653-256-255.73-121.4-624.67-426-891-834-258.07-395.34-345.39-596.32-376-1326,20.12-371.21,49.7-914.99,476-1585,0,0,18.38-50.51,88-89s402-223,402-223-764.54,749.04-765,1897,742.45,1694.58,949,1841,575.04,289.62,760,333c318.94,43.78,524.11,124.69,543,136C4235.33,5702.31,3877.76,5872.22,3821.42,5945.48Z"/>
      <path class="cls-1" d="M811,2721"/>
      <path class="cls-1" d="M4204,6330l151,1,113,153-92,30-167-147Z"/>
    </g>
  </g>
  <g id="ELLIPSE_CENTER" data-name="ELLIPSE CENTER">
    <path id="Ellipse_1_copy" data-name="Ellipse 1 copy" class="cls-1" d="M4030,1390c1176.37,0,2130,953.63,2130,2130S5206.37,5650,4030,5650,1900,4696.37,1900,3520,2853.63,1390,4030,1390Zm0.5,156C5120.99,1546,6005,2430.01,6005,3520.5S5120.99,5495,4030.5,5495,2056,4610.99,2056,3520.5,2940.01,1546,4030.5,1546Z"/>
    <path id="Ellipse_1_copy_3" data-name="Ellipse 1 copy 3" class="cls-1" d="M4030.5,2010c834.23,0,1510.5,676.27,1510.5,1510.5S4864.73,5031,4030.5,5031,2520,4354.73,2520,3520.5,3196.27,2010,4030.5,2010Zm-0.5,97c780.38,0,1413,632.62,1413,1413S4810.38,4933,4030,4933,2617,4300.38,2617,3520,3249.62,2107,4030,2107Z"/>
    <path id="Ellipse_1_copy_5" data-name="Ellipse 1 copy 5" class="cls-1" d="M4030.5,2913c335.51,0,607.5,271.99,607.5,607.5S4366.01,4128,4030.5,4128,3423,3856.01,3423,3520.5,3694.99,2913,4030.5,2913Zm0.5,89c286.64,0,519,232.36,519,519s-232.36,519-519,519-519-232.36-519-519S3744.36,3002,4031,3002Z"/>
  </g>
  <g id="CONTINENT">
    <path class="cls-1" d="M2379,4832l-69,61,90,104,95-74Z"/>
    <path class="cls-1" d="M2541,5129l59-97,226,181-85,68Z"/>
    <path class="cls-1" d="M5303,5144l79,102-162,125-75-76Z"/>
    <path class="cls-1" d="M3959,5176"/>
    <path class="cls-1" d="M5377,5134l80,54,217-202-67-111Z"/>
    <path class="cls-1" d="M3619,1430V1022l-59,4-2-90-179-1-95,177s-99.41,127.51-78,251l3,132s-7.86,82.38-259,200,638-210,638-210Z"/>
    <path class="cls-1" d="M3741,1438V693s-11.6-78.557,58-221,158-368,158-368h239V254h80V371h68V1466Z"/>
    <path class="cls-1" d="M4423,1437s-11.17-44.25,37-63V875l58-18V733h160l177,309s20,28.3,20,149v264s4.4,94.04,57,144c0,0-493.57-115.49-492-119S4423,1437,4423,1437Z"/>
    <path class="cls-1" d="M2337,4603l211,258s117.49-93.82,196,4l33,41s19.33,39.83,62,37l54-4s46.1-52.34,52-120,50-234,50-234-242.13-328.01-252-337-44-24-44-24l-58-49s24.43,128.81,18,199l-81-17s-58.53,7.46-48-71l5-43-60,15s-61.85,65.22-29,132l-65-20s-10.7,61.98-3,109S2337,4603,2337,4603Z"/>
    <path class="cls-1" d="M2602,3942s-63.76,9.54-118-11l-43,79s48.41-8.23,96,55,89,36,89,36l10-43Z"/>
    <path class="cls-1" d="M4151,3923s2.68,157.4-25,290l-10,40,37,24-25,101s56.79-8.67,99,82,157,149,157,149l102,2s73.03-.9,97,88,104,318,104,318,16.48,77.3,117,97l6,46s109.98,41.74,181-22c36.15-32.45,6-103,6-103l-16-60,96-135-8-46,75-58s58.28-83.46,70-199c6.16-60.72,117-97,117-97s53.59-42.72,92-153l-36-66,76-113s69.33-149.88-134-122c0,0-94.37-6.22-177,44l-14-58s-78.97,21.89-113,54-102,16-102,16l56-92-46-73s-100.53-46.37-159-4c0,0-201.66-145.99-310-88l-34,14-56-46s-37.13,54.64-79,12C4295,3765,4157.03,3874.75,4151,3923Z"/>
    <path class="cls-1" d="M5876,4233s-8.13-52.95-61-73-134,4-134,4-39.56-184.22,37-318,83-105,83-105,27.76-65.65,36-106c0,0,120.63-13.02,181-50l14,234-114,439Z"/>
    <path class="cls-1" d="M5568,3497l36-83,146,47,235,2,33,57-446-6Z"/>
    <path class="cls-1" d="M6003,3257s-162.53,39.21-225-105l-42,144-61-23s-34.02-250.87-16-330c0,0-43.44-27.31-258,38,0,0-12.89-23.41,15-50s64-146,64-146-12.54-81.74,0-118c0,0-79.38-51.62-77-123,0,0-43.7-41.24-42-104l-27,97,43,25s-12.38,46.85,8,73c0,0-172.65-20.76-215-49l-93-101,41-4,89-94s6.92-11.33,11-52,4-42,4-42l69-25s-58.36-72.07-60-103c0,0,54.02,3.21,105,57l31,23v-63s-27.82-16.08-42-33-50-7-50-7l-70,13s-17.12-27.88-14-92c2.6-53.44-15-74-15-74l-29,51s-24.78-39.83-27-81c0,0-157.71-14.62-200-86l-8-18,61-24,122,23s422.9,240.51,424,248,193,262,193,262l149,268,138,305,40,232Zm-573-859,8-106,75,16-38,23-14,85Z"/>
    <path class="cls-1" d="M4697,1641s96.04,73.99,107,137c0,0,59.43-79.72,39-171Z"/>
    <path class="cls-1" d="M4851,2282l61-68s59.94,35.93,68,74l-62,8-23,24Z"/>
    <path class="cls-1" d="M4336,3424s66.66-25.62,115-2c0,0-36.84,40.79-85,43Z"/>
    <path class="cls-1" d="M4082,3340s43.33-23.65,114,21,87,32,87,32-10.93,21.35-62,15c0,0-7.72-7.25-21-4C4200,3404,4160.36,3355.19,4082,3340Z"/>
    <path class="cls-1" d="M4417,2079l10-76,111-63-18-120,56-12s12.12-80.19,54-98c0,0,138.55,52.4,93,135l31,56s65.1-29.31,89-71c0,0-16.37,129.56,95,248l21,60s-75.59,49.99-212,57l-150-3-188-90Z"/>
    <path class="cls-1" d="M4350,2054l24-68s-151.21-85.56-176-88c0,0-19.75-26.7,23-87s66-102,66-102,64.56-34.86,130-92,99-40,99-40-436.88-127.25-456-130-401.78,21.14-418,28-278,83-278,83l-178,84-456,252-18,91s2.14,65.39,54,82l-21,49s7.68,1.2,49-21,218.66-131.07,268-129,118.68,32.04,166,82,54.63,49.75,25,142c0,0-14.55,53.78-16,86,0,0,215.38-157.89,567-206s537,9,537,9Z"/>
    <path class="cls-1" d="M3269,2290s0.75,3.18,2.01,8.47C3277.26,2324.89,3296,2404,3296,2404s-275.82,197.09-270,596c0,0,40.96,64.2,68,74,0,0-1.72,95.63,25,122,0,0,61.76-35.9,88,36,0,0,16.17,109.9,79,146s55,95,55,95-9.09,99.45,25,156c0,0,423.86,90.54,471,121s65.78,13.85,121,137c0,0,119.29,37.63,148,13l-108-139-4-125s-47.08-6.03-91,25c-26.54,18.75-66,9-66,9s51.47-173.15,55-243c0,0-63.13-4.75-82,69s-100,98-100,98-53.47,54.34-120-96,14.6-185.73,68-262l34,22,33-49-27-38s81.01-103.65,163-66l65-67s69.8,28.47,144,21c0,0-7.32,106.46,23,152,0,0,46.56-29.04,28-99,0,0-38.42-74.48-16-118s136-153,136-153,74.74-49.29,63-169c0,0,93.47-84.46,169-141s96-113,96-113,15.12-34.5,78-8c0,0,38.85,8.04,67-15l41-21s-58.24-62.94-83-135-325-154-325-154l-245-21s-517.84,55.12-533,61-285,150-285,150Zm816-28s-53.88,41.1-41,104l53,33s-60.59,71.83-57,123-1.76,82.86,74,30,53-38,53-38l28,53,90-45-38-86,81,44,72-70-182-93s5.12-91.13-78-57C4140,2260,4103.98,2262,4085,2262Z"/>
  </g>
  <g id="WEB">
    <rect x="4005" y="4067" width="55" height="1501" class="cls-1"/>
    <path id="Rectangle_1_copy" data-name="Rectangle 1 copy" class="cls-1" d="M3600.92,3887.99l38.89,38.89L2578.44,4988.25l-38.89-38.9Z"/>
    <path id="Rectangle_1_copy_3" data-name="Rectangle 1 copy 3" class="cls-1" d="M4463.95,3887.99l-38.88,38.89L5486.13,4988.25l38.88-38.9Z"/>
    <rect id="Rectangle_1_copy_2" data-name="Rectangle 1 copy 2" class="cls-1" x="4005.22" y="1474" width="55" height="1501"/>
    <path id="Rectangle_1_copy_4" data-name="Rectangle 1 copy 4" class="cls-1" d="M3601.2,3154.01l38.89-38.89L2578.88,2053.75l-38.89,38.9Z"/>
    <path id="Rectangle_1_copy_5" data-name="Rectangle 1 copy 5" class="cls-1" d="M4464.1,3154.01l-38.87-38.89L5486.14,2053.75l38.87,38.9Z"/>
    <rect x="2049" y="3473" width="1422" height="91" class="cls-1"/>
    <rect id="Rectangle_2_copy" class="cls-1" data-name="Rectangle 2 copy" x="4590" y="3473" width="1422" height="91"/>
  </g>
  <g id="STARS">
    <path id="star" class="cls-1" d="M266,3802l269-179,269,179-90-305,252-198H643L535,2993,428,3299H104l252,198Z"/>
    <path id="star_copy" data-name="star copy" class="cls-1" d="M713,5500l269-179,269,179-90-305,252-198H1090L982,4691,875,4997H551l252,198Z"/>
    <path id="star_copy_2" data-name="star copy 2" class="cls-1" d="M1966,6770l269-179,269,179-90-305,252-198H2343l-108-306-107,306H1804l252,198Z"/>
    <path id="star_copy_3" data-name="star copy 3" class="cls-1" d="M3715,7365l269-179,269,179-90-305,252-198H4092l-108-306-107,306H3553l252,198Z"/>
    <path id="star_copy_4" data-name="star copy 4" class="cls-1" d="M5463,6770l269-179,269,179-90-305,252-198H5840l-108-306-107,306H5301l252,198Z"/>
    <path id="star_copy_5" data-name="star copy 5" class="cls-1" d="M6827,5500l269-179,269,179-90-305,252-198H7204l-108-306-107,306H6665l252,198Z"/>
    <path id="star_copy_6" data-name="star copy 6" class="cls-1" d="M7261,3802l269-179,269,179-90-305,252-198H7638l-108-306-107,306H7099l252,198Z"/>
  </g>
  </g>
</svg>